<svg width="53" height="54" viewBox="0 0 53 54" fill="none" xmlns="http://www.w3.org/2000/svg">
<path d="M26.4 0C11.8333 0 0 12.0126 0 26.8C0 41.5874 11.8333 53.6 26.4 53.6C40.9667 53.6 52.8 41.5874 52.8 26.8C52.8 12.0126 40.9667 0 26.4 0ZM26.4 2.33043C39.7261 2.33043 50.5043 13.272 50.5043 26.8C50.5043 40.328 39.7261 51.2696 26.4 51.2696C13.0739 51.2696 2.29565 40.328 2.29565 26.8C2.29565 13.272 13.0739 2.33043 26.4 2.33043ZM26.3821 5.81016C26.078 5.81498 25.7883 5.94206 25.5765 6.1635C25.3646 6.38494 25.248 6.68266 25.2522 6.9913V23.5069C24.5812 23.7477 24.0002 24.1936 23.5892 24.7833C23.1781 25.373 22.9571 26.0776 22.9565 26.8C22.9576 27.3208 23.0732 27.8347 23.295 28.3043L16.4058 35.2979C16.2957 35.4053 16.2077 35.5339 16.1471 35.6762C16.0866 35.8185 16.0545 35.9716 16.053 36.1267C16.0514 36.2817 16.0804 36.4355 16.1381 36.579C16.1958 36.7225 16.2812 36.8529 16.3892 36.9625C16.4971 37.0721 16.6256 37.1588 16.767 37.2174C16.9084 37.276 17.0598 37.3054 17.2126 37.3038C17.3653 37.3022 17.5161 37.2697 17.6563 37.2082C17.7965 37.1467 17.9232 37.0574 18.0289 36.9456L24.9181 29.952C25.3807 30.1772 25.887 30.2946 26.4 30.2957C27.3133 30.2957 28.1891 29.9274 28.8349 29.2718C29.4807 28.6162 29.8435 27.7271 29.8435 26.8C29.8425 26.078 29.6213 25.3739 29.2102 24.7847C28.7991 24.1954 28.2184 23.7499 27.5478 23.5092V6.9913C27.5499 6.83541 27.5212 6.68067 27.4633 6.53626C27.4055 6.39184 27.3196 6.26068 27.2109 6.15054C27.1022 6.0404 26.9729 5.95353 26.8305 5.89506C26.6881 5.83659 26.5356 5.80772 26.3821 5.81016Z" fill="black"/>
</svg>
