<svg width="26" height="27" viewBox="0 0 26 27" fill="none" xmlns="http://www.w3.org/2000/svg">
<path d="M0 26.1241L1.83631 19.4156C0.703173 17.452 0.107762 15.226 0.10885 12.9434C0.112116 5.80717 5.91928 0 13.0544 0C16.517 0.0010885 19.7672 1.34974 22.212 3.7967C24.6557 6.24366 26.0011 9.49611 26 12.9554C25.9967 20.0927 20.1896 25.8999 13.0544 25.8999C10.8883 25.8988 8.75375 25.3556 6.86302 24.3237L0 26.1241ZM7.18086 21.9802C9.00519 23.0632 10.7468 23.712 13.0501 23.7131C18.9802 23.7131 23.811 18.8866 23.8143 12.9532C23.8165 7.00779 19.0085 2.18789 13.0588 2.18572C7.12426 2.18572 2.29674 7.01214 2.29457 12.9445C2.29348 15.3664 3.00318 17.1799 4.19509 19.0771L3.10768 23.048L7.18086 21.9802ZM19.5756 16.0326C19.4951 15.8976 19.2796 15.817 18.9552 15.6549C18.6319 15.4927 17.0416 14.71 16.7444 14.6023C16.4484 14.4945 16.2329 14.4401 16.0162 14.7645C15.8007 15.0878 15.1803 15.817 14.992 16.0326C14.8036 16.2481 14.6142 16.2753 14.291 16.1131C13.9677 15.9509 12.9249 15.6102 11.6894 14.5076C10.7283 13.6498 10.0785 12.5907 9.89014 12.2663C9.70183 11.9431 9.87055 11.7678 10.0316 11.6067C10.1775 11.4619 10.3549 11.229 10.5171 11.0396C10.6815 10.8524 10.7348 10.7174 10.8437 10.5008C10.9514 10.2853 10.8981 10.0959 10.8165 9.93369C10.7348 9.77259 10.0883 8.18011 9.81939 7.53245C9.55597 6.9022 9.28929 6.98711 9.09118 6.97731L8.47074 6.96642C8.25521 6.96642 7.90471 7.04697 7.60864 7.37135C7.31257 7.69572 6.4766 8.47727 6.4766 10.0697C6.4766 11.6622 7.63585 13.2003 7.79695 13.4158C7.95914 13.6313 10.0774 16.899 13.3222 18.2999C14.0939 18.633 14.697 18.8322 15.1661 18.9813C15.9411 19.2273 16.6465 19.1925 17.2038 19.1098C17.8253 19.0172 19.1174 18.3271 19.3873 17.5717C19.6573 16.8152 19.6573 16.1675 19.5756 16.0326Z" fill="#949494"/>
</svg>
