<svg width="15" height="15" viewBox="0 0 15 15" fill="none" xmlns="http://www.w3.org/2000/svg">
<path d="M10.9199 0C10.5866 0 10.2796 0.180749 10.1178 0.472153L8.99553 2.49369C8.8486 2.75838 8.84167 3.07853 8.97709 3.34932L10.0582 5.51164C10.0582 5.51164 9.74491 7.12243 8.43368 8.43367C7.1224 9.7449 5.51702 10.0528 5.51702 10.0528L3.35507 8.97185C3.0841 8.83634 2.76372 8.84336 2.49894 8.99057L0.471666 10.1177C0.180511 10.2796 0 10.5864 0 10.9195V13.2469C0 14.4321 1.10091 15.2882 2.22388 14.9092C4.53038 14.131 8.11064 12.6492 10.3799 10.3799C12.6491 8.11063 14.131 4.53037 14.9092 2.22391C15.2881 1.1009 14.4321 0 13.2469 0H10.9199Z" fill="white"/>
</svg>
